<?xml version="1.0" standalone="no"?>
<!DOCTYPE svg PUBLIC "-//W3C//DTD SVG 20010904//EN"
 "http://www.w3.org/TR/2001/REC-SVG-20010904/DTD/svg10.dtd">
<svg version="1.0" xmlns="http://www.w3.org/2000/svg"
 width="1231.000000pt" height="1644.000000pt" viewBox="0 0 1231.000000 1644.000000"
 preserveAspectRatio="xMidYMid meet">

<g transform="translate(0.000000,1644.000000) scale(0.100000,-0.100000)"
fill="#000000" stroke="none">
<path d="M8786 15759 c-295 -34 -701 -184 -1211 -448 -552 -286 -925 -549
-1270 -896 -195 -195 -313 -376 -415 -635 -22 -58 -45 -115 -50 -128 l-10 -23
-38 29 c-103 82 -498 170 -927 207 -281 25 -701 22 -995 -6 -112 -10 -375 -56
-400 -68 -19 -10 -25 -50 -8 -55 95 -27 529 -111 703 -136 164 -23 385 -66
385 -74 0 -2 -21 -11 -47 -21 -680 -253 -1206 -498 -1567 -728 -44 -29 -94
-58 -109 -65 -40 -18 -314 -202 -432 -291 -465 -350 -884 -779 -1256 -1286
-172 -234 -181 -252 -139 -275 17 -9 41 -2 140 44 247 115 525 219 708 266 45
12 87 20 93 18 13 -4 -140 -252 -233 -374 -42 -56 -125 -150 -185 -211 -191
-193 -359 -321 -842 -643 -322 -215 -344 -233 -327 -275 12 -32 58 -40 231
-39 139 1 194 6 305 27 121 24 305 71 352 92 31 13 20 -7 -68 -120 -98 -126
-178 -217 -569 -650 -359 -398 -385 -429 -385 -465 0 -63 54 -62 240 3 285 99
671 287 978 476 101 62 185 111 186 109 4 -5 -22 -451 -34 -593 -15 -179 -65
-578 -96 -764 -53 -330 -109 -557 -210 -864 -41 -125 -74 -237 -72 -250 4 -31
40 -33 78 -5 75 55 430 502 685 862 47 66 49 68 59 45 70 -171 171 -325 298
-455 l102 -105 -3 -57 c-8 -191 -75 -472 -216 -907 -24 -77 -45 -148 -45 -157
0 -24 35 -41 58 -29 10 5 81 76 157 158 241 257 326 342 330 330 2 -7 21 -70
41 -142 101 -365 380 -1265 479 -1545 56 -159 71 -174 295 -282 91 -44 215
-104 275 -133 61 -30 205 -111 320 -181 210 -127 437 -260 732 -429 86 -49
182 -106 214 -127 l57 -36 21 -94 c12 -51 26 -129 32 -173 19 -140 25 -525 16
-1040 -11 -639 -9 -665 45 -665 22 0 109 42 153 74 17 12 64 42 105 66 41 24
167 103 280 175 210 134 272 172 900 555 816 498 1433 853 1885 1085 116 59
251 129 300 155 221 117 463 238 497 249 78 26 76 50 -21 179 -105 140 -196
327 -276 567 -37 112 -105 360 -105 383 0 7 31 -10 69 -38 79 -58 217 -136
276 -157 81 -28 124 -18 125 31 0 10 -40 107 -89 215 -162 358 -264 661 -305
910 -8 43 -7 43 140 -61 281 -197 646 -418 690 -418 13 0 28 9 34 20 12 23 13
23 -119 135 -215 183 -408 479 -515 793 -44 127 -80 279 -74 306 2 9 32 -11
83 -56 178 -156 470 -320 900 -503 351 -151 538 -211 569 -186 30 25 17 47
-53 95 -81 55 -189 166 -245 250 -160 241 -249 610 -262 1086 l-6 185 71 -143
c118 -238 294 -483 501 -695 145 -150 252 -243 368 -320 133 -89 200 -106 210
-54 2 9 -38 60 -93 119 -157 167 -255 327 -314 511 -57 178 -66 254 -66 542 0
250 5 323 41 575 22 155 14 150 102 64 165 -163 397 -312 777 -499 127 -62
240 -116 251 -119 29 -9 57 19 48 46 -3 11 -43 77 -89 147 -81 124 -369 604
-541 904 -65 112 -146 280 -194 402 -58 147 -135 383 -127 391 3 3 102 -26
220 -65 305 -100 334 -105 357 -60 14 25 0 50 -89 163 -216 273 -487 532 -747
716 -49 34 -93 66 -99 71 -19 19 201 -62 302 -110 266 -128 480 -308 670 -563
36 -48 74 -90 84 -93 24 -8 49 10 49 35 0 28 -143 349 -270 605 -202 406 -413
713 -743 1078 -44 48 -75 87 -69 87 5 0 29 -7 53 -15 53 -19 202 -61 245 -68
37 -7 74 15 74 44 0 29 -291 317 -415 410 -247 188 -694 444 -966 553 l-84 34
40 8 c54 10 449 -13 615 -36 74 -10 206 -30 293 -45 125 -22 163 -26 182 -17
44 20 32 53 -41 122 -156 145 -386 292 -714 456 -768 383 -1690 686 -2420 795
-151 22 -428 32 -484 16 l-29 -8 7 78 c18 221 129 528 285 793 265 447 604
745 1264 1112 104 57 204 117 223 132 43 34 46 72 8 86 -28 11 -38 11 -138 -1z
m-2346 -6473 c0 -144 47 -414 101 -577 100 -303 224 -537 379 -713 75 -85 103
-105 128 -90 24 15 26 70 7 177 -70 400 -30 787 120 1167 21 52 39 97 41 99
12 14 233 -87 339 -154 470 -301 699 -891 560 -1440 -118 -467 -484 -834 -952
-957 -105 -28 -137 -31 -298 -35 -156 -4 -194 -2 -285 17 -190 39 -355 107
-507 211 -101 69 -275 243 -338 339 -104 158 -185 355 -216 530 -21 117 -16
363 10 487 77 370 296 679 616 872 88 53 249 126 288 130 4 1 7 -28 7 -63z
m-2934 23 c413 -62 802 -362 972 -751 130 -295 146 -625 46 -928 -147 -445
-542 -785 -1003 -864 -121 -21 -321 -21 -442 0 -436 75 -817 383 -979 793
l-19 49 33 36 c77 81 541 1069 716 1523 l31 82 62 20 c179 57 379 71 583 40z
m-1292 -636 c-19 -192 -60 -457 -99 -648 -25 -121 -49 -235 -52 -252 -8 -48
-19 -40 -32 25 -38 179 -19 448 44 639 39 116 124 293 141 293 2 0 2 -26 -2
-57z"/>
</g>
</svg>
